<svg xmlns="http://www.w3.org/2000/svg" viewBox="0 0 200 200"><rect width="200" height="200" fill="#C7EFCF"/><circle cx="100" cy="112" r="90" fill="#fff" opacity=".25"/><path d="M60 78 L28 72 L50 92 L26 102 L56 112 Z" fill="#2B2B33" /><g transform="translate(200 0) scale(-1 1)"><path d="M60 78 L28 72 L50 92 L26 102 L56 112 Z" fill="#2B2B33" /></g><path d="M24 200 Q26 150 100 148 Q174 150 176 200 Z" fill="#2456A6" /><rect x="86" y="126" width="28" height="30" rx="10" fill="#FBD3B0" /><ellipse cx="100" cy="152" rx="21" ry="10" fill="#FBD3B0" /><ellipse cx="100" cy="141" rx="16" ry="6" fill="#cead90" /><path d="M84 150 L100 178 L116 150 Z" fill="#fff" /><path d="M60 160 Q100 150 140 160" fill="none" stroke="#F5B301" stroke-width="4" stroke-linecap="round" stroke-linejoin="round" /><circle cx="58" cy="100" r="9" fill="#FBD3B0" /><g transform="translate(200 0) scale(-1 1)"><circle cx="58" cy="100" r="9" fill="#FBD3B0" /></g><path d="M58 88 C58 50 142 50 142 88 C142 120 120 146 100 146 C80 146 58 120 58 88 Z" fill="#FBD3B0" /><path d="M62 116 l5 -5 v7 l5 -5" fill="none" stroke="#2A1F45" stroke-width="2" stroke-linecap="round" stroke-linejoin="round" /><g transform="translate(200 0) scale(-1 1)"><path d="M62 116 l5 -5 v7 l5 -5" fill="none" stroke="#2A1F45" stroke-width="2" stroke-linecap="round" stroke-linejoin="round" /></g><ellipse cx="80" cy="100" rx="9.5" ry="12.5" fill="#fff" /><ellipse cx="80" cy="101" rx="7.5" ry="10.5" fill="#8B5A2B" /><circle cx="80" cy="102" r="4" fill="#2A1F45" /><circle cx="83" cy="96" r="3" fill="#fff" /><path d="M69 92 Q80 84 92 93" fill="none" stroke="#2A1F45" stroke-width="3.5" stroke-linecap="round" stroke-linejoin="round" /><g transform="translate(200 0) scale(-1 1)"><ellipse cx="80" cy="100" rx="9.5" ry="12.5" fill="#fff" /><ellipse cx="80" cy="101" rx="7.5" ry="10.5" fill="#8B5A2B" /><circle cx="80" cy="102" r="4" fill="#2A1F45" /><circle cx="83" cy="96" r="3" fill="#fff" /><path d="M69 92 Q80 84 92 93" fill="none" stroke="#2A1F45" stroke-width="3.5" stroke-linecap="round" stroke-linejoin="round" /></g><path d="M70 82 Q80 78 90 82" fill="none" stroke="#202026" stroke-width="3.2" stroke-linecap="round" stroke-linejoin="round" /><g transform="translate(200 0) scale(-1 1)"><path d="M70 82 Q80 78 90 82" fill="none" stroke="#202026" stroke-width="3.2" stroke-linecap="round" stroke-linejoin="round" /></g><path d="M99 112 L101 114" fill="none" stroke="#cead90" stroke-width="2.5" stroke-linecap="round" stroke-linejoin="round" /><path d="M82 120 Q100 144 118 120 Z" fill="#8B2E3A" /><path d="M86 121 H114 L111 126 H89 Z" fill="#fff" /><path d="M54 76 C54 22 146 22 146 76 Z" fill="#E63946" /><path d="M70 76 C70 38 130 38 130 76 Z" fill="#fff" /><path d="M88 58 L97 67 L113 48" fill="none" stroke="#2EAD4B" stroke-width="5" stroke-linecap="round" stroke-linejoin="round" /><path d="M52 70 H148 Q154 86 100 88 Q46 86 52 70 Z" fill="#E63946" /></svg>