<svg xmlns="http://www.w3.org/2000/svg" viewBox="0 0 200 200"><rect width="200" height="200" fill="#CFE1F2"/><circle cx="100" cy="112" r="90" fill="#fff" opacity=".25"/><path d="M24 200 Q26 150 100 148 Q174 150 176 200 Z" fill="#2B2B33" /><rect x="86" y="126" width="28" height="30" rx="10" fill="#FBD3B0" /><ellipse cx="100" cy="152" rx="21" ry="10" fill="#FBD3B0" /><ellipse cx="100" cy="141" rx="16" ry="6" fill="#cead90" /><path d="M82 150 L100 176 L118 150 L126 156 L100 196 L74 156 Z" fill="#fff" /><path d="M96 160 H104 L107 196 H93 Z" fill="#2456A6" /><circle cx="58" cy="100" r="9" fill="#FBD3B0" /><g transform="translate(200 0) scale(-1 1)"><circle cx="58" cy="100" r="9" fill="#FBD3B0" /></g><path d="M58 88 C58 50 142 50 142 88 C142 120 120 146 100 146 C80 146 58 120 58 88 Z" fill="#FBD3B0" /><ellipse cx="80" cy="100" rx="9.5" ry="12.5" fill="#fff" /><ellipse cx="80" cy="101" rx="7.5" ry="10.5" fill="#2A1F45" /><circle cx="80" cy="102" r="4" fill="#2A1F45" /><circle cx="83" cy="96" r="3" fill="#fff" /><path d="M69 92 Q80 84 92 93" fill="none" stroke="#2A1F45" stroke-width="3.5" stroke-linecap="round" stroke-linejoin="round" /><g transform="translate(200 0) scale(-1 1)"><ellipse cx="80" cy="100" rx="9.5" ry="12.5" fill="#fff" /><ellipse cx="80" cy="101" rx="7.5" ry="10.5" fill="#2A1F45" /><circle cx="80" cy="102" r="4" fill="#2A1F45" /><circle cx="83" cy="96" r="3" fill="#fff" /><path d="M69 92 Q80 84 92 93" fill="none" stroke="#2A1F45" stroke-width="3.5" stroke-linecap="round" stroke-linejoin="round" /></g><path d="M99 112 L101 114" fill="none" stroke="#cead90" stroke-width="2.5" stroke-linecap="round" stroke-linejoin="round" /><path d="M88 122 Q100 132 112 122" fill="none" stroke="#2A1F45" stroke-width="3.5" stroke-linecap="round" stroke-linejoin="round" /><path d="M56 98 C46 32 154 32 144 98 L144 122 C132 120 122 108 118 88 C104 70 76 72 56 98 Z" fill="#F2C94C" /><path d="M68 84 Q80 78 90 84 M68 84 q-5 -3 -2 -8 q6 -2 6 4" fill="none" stroke="#B8901F" stroke-width="3" stroke-linecap="round" stroke-linejoin="round" /></svg>