<svg xmlns="http://www.w3.org/2000/svg" viewBox="0 0 200 200"><rect width="200" height="200" fill="#BFE1F7"/><circle cx="100" cy="112" r="90" fill="#fff" opacity=".25"/><path d="M150 190 Q196 150 172 96" fill="none" stroke="#1F7A5C" stroke-width="12" stroke-linecap="round" stroke-linejoin="round" /><path d="M160 196 Q206 176 196 124" fill="none" stroke="#2456A6" stroke-width="12" stroke-linecap="round" stroke-linejoin="round" /><g transform="translate(100 56) scale(1.25) translate(-100 -56)"><circle cx="84" cy="50" r="12" fill="#E63946" /><circle cx="100" cy="42" r="15" fill="#E63946" /><circle cx="116" cy="50" r="12" fill="#E63946" /><rect x="80" y="48" width="40" height="14" rx="0" fill="#E63946" /></g><ellipse cx="100" cy="204" rx="70" ry="46" fill="#8B2E12" /><g transform="translate(0 0)"><g transform="translate(100 104) scale(1) translate(-100 -104)"><circle cx="100" cy="104" r="56" fill="#C4501E" /><clipPath id="r0"><circle cx="100" cy="104" r="56" fill="#000" /></clipPath><g clip-path="url(#r0)"><ellipse cx="100" cy="164" rx="60" ry="22" fill="#F2A93B" /></g><g transform="translate(100 128) scale(1.3) translate(-100 -128)"><ellipse cx="93" cy="140" rx="8" ry="14" fill="#E63946" /><g transform="translate(200 0) scale(-1 1)"><ellipse cx="93" cy="140" rx="8" ry="14" fill="#E63946" /></g></g><path d="M87 110 L113 110 L100 132 Z" fill="#F5B301" /><path d="M90 116 H110" fill="none" stroke="#b88601" stroke-width="2" stroke-linecap="round" stroke-linejoin="round" /><circle cx="78" cy="96" r="11" fill="#FFFFFF" /><circle cx="79" cy="97" r="6" fill="#2A1F45" /><circle cx="81" cy="95" r="2" fill="#FFFFFF" /><g transform="translate(200 0) scale(-1 1)"><circle cx="78" cy="96" r="11" fill="#FFFFFF" /><circle cx="79" cy="97" r="6" fill="#2A1F45" /><circle cx="81" cy="95" r="2" fill="#FFFFFF" /></g></g></g></svg>