<svg xmlns="http://www.w3.org/2000/svg" viewBox="0 0 200 200"><rect width="200" height="200" fill="#F7C9DD"/><circle cx="100" cy="112" r="90" fill="#fff" opacity=".25"/><ellipse cx="100" cy="204" rx="70" ry="46" fill="#3FC1C9" /><g transform="translate(0 0)"><g transform="translate(100 104) scale(0.9) translate(-100 -104)"><circle cx="100" cy="104" r="56" fill="#FFE96B" /><clipPath id="r0"><circle cx="100" cy="104" r="56" fill="#000" /></clipPath><g clip-path="url(#r0)"><path d="M52 56 Q100 42 148 56" fill="none" stroke="#3A3A45" stroke-width="2.5" stroke-linecap="round" stroke-linejoin="round" /><path d="M52 68 Q100 54 148 68" fill="none" stroke="#3A3A45" stroke-width="2.5" stroke-linecap="round" stroke-linejoin="round" /><path d="M52 80 Q100 66 148 80" fill="none" stroke="#3A3A45" stroke-width="2.5" stroke-linecap="round" stroke-linejoin="round" /><circle cx="78" cy="136" r="5" fill="#4A3FB5" /><circle cx="92" cy="142" r="4" fill="#2A1F45" /><g transform="translate(200 0) scale(-1 1)"><circle cx="78" cy="136" r="5" fill="#4A3FB5" /><circle cx="92" cy="142" r="4" fill="#2A1F45" /></g></g><path d="M82 106 Q100 96 118 106 Q116 130 100 144 Q96 126 82 106 Z" fill="#E8D2A8" /><circle cx="93" cy="110" r="2" fill="#8b7e65" /><g transform="translate(200 0) scale(-1 1)"><circle cx="93" cy="110" r="2" fill="#8b7e65" /></g><circle cx="78" cy="96" r="6" fill="#2A1F45" /><circle cx="80" cy="94" r="2" fill="#FFFFFF" /><g transform="translate(200 0) scale(-1 1)"><circle cx="78" cy="96" r="6" fill="#2A1F45" /><circle cx="80" cy="94" r="2" fill="#FFFFFF" /></g></g></g><ellipse cx="100" cy="104" rx="12" ry="5" fill="#4DB6E8" /></svg>