<svg xmlns="http://www.w3.org/2000/svg" viewBox="0 0 200 200"><rect width="200" height="200" fill="#CDE8B5"/><circle cx="100" cy="112" r="90" fill="#fff" opacity=".25"/><path d="M80 62 Q66 40 60 12 M70 40 L48 30 M64 26 L78 8" fill="none" stroke="#8B5A2B" stroke-width="7" stroke-linecap="round" stroke-linejoin="round" /><g transform="translate(200 0) scale(-1 1)"><path d="M80 62 Q66 40 60 12 M70 40 L48 30 M64 26 L78 8" fill="none" stroke="#8B5A2B" stroke-width="7" stroke-linecap="round" stroke-linejoin="round" /></g><g transform="rotate(20 60 80)"><ellipse cx="36" cy="80" rx="28" ry="13" fill="#C68642" /><ellipse cx="36" cy="80" rx="17" ry="6" fill="#F7E5C4" /></g><g transform="translate(200 0) scale(-1 1)"><g transform="rotate(20 60 80)"><ellipse cx="36" cy="80" rx="28" ry="13" fill="#C68642" /><ellipse cx="36" cy="80" rx="17" ry="6" fill="#F7E5C4" /></g></g><ellipse cx="100" cy="110" rx="58" ry="54" fill="#C68642" /><clipPath id="r0"><ellipse cx="100" cy="110" rx="58" ry="54" fill="#000" /></clipPath><g clip-path="url(#r0)"><circle cx="78" cy="72" r="4" fill="#FFFFFF" /><circle cx="100" cy="66" r="4" fill="#FFFFFF" /><circle cx="122" cy="72" r="4" fill="#FFFFFF" /></g><ellipse cx="100" cy="134" rx="28" ry="21" fill="#F7E5C4" /><ellipse cx="100" cy="124" rx="9" ry="6.5" fill="#2A1F45" /><path d="M100 130 V138 M88 138 Q94 146 100 138 Q106 146 112 138" fill="none" stroke="#2A1F45" stroke-width="3" stroke-linecap="round" stroke-linejoin="round" /><circle cx="76" cy="100" r="6" fill="#2A1F45" /><circle cx="78" cy="98" r="2" fill="#FFFFFF" /><circle cx="124" cy="100" r="6" fill="#2A1F45" /><circle cx="126" cy="98" r="2" fill="#FFFFFF" /></svg>