<svg xmlns="http://www.w3.org/2000/svg" viewBox="0 0 200 200"><rect width="200" height="200" fill="#FFD9B0"/><circle cx="100" cy="112" r="90" fill="#fff" opacity=".25"/><ellipse cx="100" cy="172" rx="76" ry="22" fill="#3F9B4B" /><ellipse cx="100" cy="150" rx="56" ry="19" fill="#57B560" /><path d="M100 148 Q62 112 100 78" fill="none" stroke="#57B560" stroke-width="30" stroke-linecap="round" stroke-linejoin="round" /><path d="M104 54 V26 M104 26 L96 16 M104 26 L112 16" fill="none" stroke="#E63946" stroke-width="3.5" stroke-linecap="round" stroke-linejoin="round" /><ellipse cx="102" cy="70" rx="36" ry="27" fill="#57B560" /><circle cx="86" cy="64" r="8" fill="#FFE156" /><ellipse cx="86" cy="64" rx="2.5" ry="6.5" fill="#2A1F45" /><g transform="translate(200 0) scale(-1 1)"><circle cx="86" cy="64" r="8" fill="#FFE156" /><ellipse cx="86" cy="64" rx="2.5" ry="6.5" fill="#2A1F45" /></g><circle cx="96" cy="80" r="1.8" fill="#2F6B2A" /><g transform="translate(200 0) scale(-1 1)"><circle cx="96" cy="80" r="1.8" fill="#2F6B2A" /></g><g transform="rotate(45 58 172)"><rect x="51" y="165" width="14" height="14" rx="0" fill="#F2C94C" /></g><g transform="rotate(45 100 176)"><rect x="93" y="169" width="14" height="14" rx="0" fill="#F2C94C" /></g><g transform="rotate(45 142 172)"><rect x="135" y="165" width="14" height="14" rx="0" fill="#F2C94C" /></g><g transform="rotate(45 76 150)"><rect x="69" y="143" width="14" height="14" rx="0" fill="#F2C94C" /></g><g transform="rotate(45 124 150)"><rect x="117" y="143" width="14" height="14" rx="0" fill="#F2C94C" /></g></svg>