<svg xmlns="http://www.w3.org/2000/svg" viewBox="0 0 200 200"><rect width="200" height="200" fill="#C9D6F0"/><circle cx="100" cy="112" r="90" fill="#fff" opacity=".25"/><path d="M46 108 L18 138 L54 146 Z" fill="#7D8794" /><g transform="translate(200 0) scale(-1 1)"><path d="M46 108 L18 138 L54 146 Z" fill="#7D8794" /></g><path d="M44 94 L46 26 L96 62 Z" fill="#7D8794" /><path d="M54 78 L55 44 L80 62 Z" fill="#F2F4F7" /><g transform="translate(200 0) scale(-1 1)"><path d="M44 94 L46 26 L96 62 Z" fill="#7D8794" /><path d="M54 78 L55 44 L80 62 Z" fill="#F2F4F7" /></g><ellipse cx="100" cy="110" rx="58" ry="54" fill="#7D8794" /><clipPath id="r0"><ellipse cx="100" cy="110" rx="58" ry="54" fill="#000" /></clipPath><g clip-path="url(#r0)"><ellipse cx="62" cy="144" rx="30" ry="30" fill="#F2F4F7" /><g transform="translate(200 0) scale(-1 1)"><ellipse cx="62" cy="144" rx="30" ry="30" fill="#F2F4F7" /></g><path d="M100 60 L90 96 H110 Z" fill="#5F6874" /></g><ellipse cx="100" cy="134" rx="28" ry="21" fill="#F2F4F7" /><ellipse cx="100" cy="124" rx="9" ry="6.5" fill="#2A1F45" /><path d="M100 130 V138 M88 138 Q94 146 100 138 Q106 146 112 138" fill="none" stroke="#2A1F45" stroke-width="3" stroke-linecap="round" stroke-linejoin="round" /><circle cx="76" cy="100" r="6" fill="#2A1F45" /><circle cx="78" cy="98" r="2" fill="#FFFFFF" /><circle cx="124" cy="100" r="6" fill="#2A1F45" /><circle cx="126" cy="98" r="2" fill="#FFFFFF" /><path d="M66 86 L88 92" fill="none" stroke="#2A1F45" stroke-width="3.5" stroke-linecap="round" stroke-linejoin="round" /><g transform="translate(200 0) scale(-1 1)"><path d="M66 86 L88 92" fill="none" stroke="#2A1F45" stroke-width="3.5" stroke-linecap="round" stroke-linejoin="round" /></g></svg>