<svg xmlns="http://www.w3.org/2000/svg" viewBox="0 0 200 200"><rect width="200" height="200" fill="#C9E8B5"/><circle cx="100" cy="112" r="90" fill="#fff" opacity=".25"/><circle cx="52" cy="64" r="22" fill="#F5C25B" /><circle cx="52" cy="64" r="12" fill="#F4A7B0" /><g transform="translate(200 0) scale(-1 1)"><circle cx="52" cy="64" r="22" fill="#F5C25B" /><circle cx="52" cy="64" r="12" fill="#F4A7B0" /></g><ellipse cx="100" cy="110" rx="58" ry="54" fill="#F5C25B" /><clipPath id="r0"><ellipse cx="100" cy="110" rx="58" ry="54" fill="#000" /></clipPath><g clip-path="url(#r0)"><circle cx="70" cy="70" r="7" fill="#8B5A2B" /><circle cx="70" cy="70" r="7" fill="none" stroke="#2A1F45" stroke-width="3" stroke-dasharray="9 5"/><circle cx="100" cy="62" r="7" fill="#8B5A2B" /><circle cx="100" cy="62" r="7" fill="none" stroke="#2A1F45" stroke-width="3" stroke-dasharray="9 5"/><circle cx="130" cy="70" r="7" fill="#8B5A2B" /><circle cx="130" cy="70" r="7" fill="none" stroke="#2A1F45" stroke-width="3" stroke-dasharray="9 5"/><circle cx="52" cy="96" r="7" fill="#8B5A2B" /><circle cx="52" cy="96" r="7" fill="none" stroke="#2A1F45" stroke-width="3" stroke-dasharray="9 5"/><circle cx="148" cy="96" r="7" fill="#8B5A2B" /><circle cx="148" cy="96" r="7" fill="none" stroke="#2A1F45" stroke-width="3" stroke-dasharray="9 5"/><circle cx="56" cy="128" r="7" fill="#8B5A2B" /><circle cx="56" cy="128" r="7" fill="none" stroke="#2A1F45" stroke-width="3" stroke-dasharray="9 5"/><circle cx="144" cy="128" r="7" fill="#8B5A2B" /><circle cx="144" cy="128" r="7" fill="none" stroke="#2A1F45" stroke-width="3" stroke-dasharray="9 5"/><circle cx="84" cy="80" r="7" fill="#8B5A2B" /><circle cx="84" cy="80" r="7" fill="none" stroke="#2A1F45" stroke-width="3" stroke-dasharray="9 5"/><circle cx="116" cy="80" r="7" fill="#8B5A2B" /><circle cx="116" cy="80" r="7" fill="none" stroke="#2A1F45" stroke-width="3" stroke-dasharray="9 5"/><circle cx="64" cy="150" r="7" fill="#8B5A2B" /><circle cx="64" cy="150" r="7" fill="none" stroke="#2A1F45" stroke-width="3" stroke-dasharray="9 5"/><circle cx="136" cy="150" r="7" fill="#8B5A2B" /><circle cx="136" cy="150" r="7" fill="none" stroke="#2A1F45" stroke-width="3" stroke-dasharray="9 5"/></g><ellipse cx="100" cy="134" rx="28" ry="21" fill="#FFF4D9" /><ellipse cx="100" cy="124" rx="9" ry="6.5" fill="#C2566B" /><path d="M100 130 V138 M88 138 Q94 146 100 138 Q106 146 112 138" fill="none" stroke="#2A1F45" stroke-width="3" stroke-linecap="round" stroke-linejoin="round" /><circle cx="76" cy="100" r="6" fill="#2A1F45" /><circle cx="78" cy="98" r="2" fill="#FFFFFF" /><circle cx="124" cy="100" r="6" fill="#2A1F45" /><circle cx="126" cy="98" r="2" fill="#FFFFFF" /><path d="M70 132 L40 126 M70 138 L40 142" fill="none" stroke="#2A1F45" stroke-width="2" stroke-linecap="round" stroke-linejoin="round" /><g transform="translate(200 0) scale(-1 1)"><path d="M70 132 L40 126 M70 138 L40 142" fill="none" stroke="#2A1F45" stroke-width="2" stroke-linecap="round" stroke-linejoin="round" /></g></svg>