<svg xmlns="http://www.w3.org/2000/svg" viewBox="0 0 200 200"><rect width="200" height="200" fill="#E6D4F2"/><circle cx="100" cy="112" r="90" fill="#fff" opacity=".25"/><circle cx="100" cy="30" r="19" fill="#2B2B33" /><path d="M24 200 Q26 150 100 148 Q174 150 176 200 Z" fill="#FFFFFF" /><rect x="86" y="126" width="28" height="30" rx="10" fill="#8D5A3B" /><ellipse cx="100" cy="152" rx="21" ry="10" fill="#8D5A3B" /><ellipse cx="100" cy="141" rx="16" ry="6" fill="#744a30" /><circle cx="58" cy="100" r="9" fill="#8D5A3B" /><g transform="translate(200 0) scale(-1 1)"><circle cx="58" cy="100" r="9" fill="#8D5A3B" /></g><ellipse cx="100" cy="96" rx="42" ry="48" fill="#8D5A3B" /><circle cx="72" cy="112" r="7" fill="#F28B8B" opacity=".55"/><g transform="translate(200 0) scale(-1 1)"><circle cx="72" cy="112" r="7" fill="#F28B8B" opacity=".55"/></g><circle cx="82" cy="97" r="5" fill="#2A1F45" /><g transform="translate(200 0) scale(-1 1)"><circle cx="82" cy="97" r="5" fill="#2A1F45" /></g><circle cx="84" cy="95" r="1.6" fill="#fff" /><circle cx="120" cy="95" r="1.6" fill="#fff" /><path d="M73 85 Q82 80 91 85" fill="none" stroke="#202026" stroke-width="3.2" stroke-linecap="round" stroke-linejoin="round" /><g transform="translate(200 0) scale(-1 1)"><path d="M73 85 Q82 80 91 85" fill="none" stroke="#202026" stroke-width="3.2" stroke-linecap="round" stroke-linejoin="round" /></g><path d="M100 102 Q95 112 102 113" fill="none" stroke="#744a30" stroke-width="2.8" stroke-linecap="round" stroke-linejoin="round" /><path d="M88 122 Q100 132 112 122" fill="none" stroke="#2A1F45" stroke-width="3.5" stroke-linecap="round" stroke-linejoin="round" /><path d="M56 96 C46 34 154 34 144 96 C140 74 124 62 100 62 C76 62 60 74 56 96 Z" fill="#2B2B33" /><path d="M100 40 L78 26 V54 Z M100 40 L122 26 V54 Z" fill="#E63946" /><circle cx="100" cy="40" r="6" fill="#B5202C" /></svg>