<svg xmlns="http://www.w3.org/2000/svg" viewBox="0 0 200 200"><rect width="200" height="200" fill="#D8E2DC"/><circle cx="100" cy="112" r="90" fill="#fff" opacity=".25"/><circle cx="100" cy="30" r="19" fill="#C9CED6" /><path d="M24 200 Q26 150 100 148 Q174 150 176 200 Z" fill="#B79AD9" /><rect x="86" y="126" width="28" height="30" rx="10" fill="#E8B48A" /><ellipse cx="100" cy="152" rx="21" ry="10" fill="#E8B48A" /><ellipse cx="100" cy="141" rx="16" ry="6" fill="#be9471" /><circle cx="80" cy="158" r="3.5" fill="#fff" /><circle cx="88" cy="162" r="3.5" fill="#fff" /><circle cx="96" cy="164" r="3.5" fill="#fff" /><circle cx="104" cy="164" r="3.5" fill="#fff" /><circle cx="112" cy="162" r="3.5" fill="#fff" /><circle cx="120" cy="158" r="3.5" fill="#fff" /><circle cx="58" cy="100" r="9" fill="#E8B48A" /><g transform="translate(200 0) scale(-1 1)"><circle cx="58" cy="100" r="9" fill="#E8B48A" /></g><ellipse cx="100" cy="96" rx="42" ry="48" fill="#E8B48A" /><circle cx="82" cy="97" r="5" fill="#2A1F45" /><g transform="translate(200 0) scale(-1 1)"><circle cx="82" cy="97" r="5" fill="#2A1F45" /></g><circle cx="84" cy="95" r="1.6" fill="#fff" /><circle cx="120" cy="95" r="1.6" fill="#fff" /><path d="M73 85 Q82 80 91 85" fill="none" stroke="#979ba1" stroke-width="3.2" stroke-linecap="round" stroke-linejoin="round" /><g transform="translate(200 0) scale(-1 1)"><path d="M73 85 Q82 80 91 85" fill="none" stroke="#979ba1" stroke-width="3.2" stroke-linecap="round" stroke-linejoin="round" /></g><path d="M100 102 Q95 112 102 113" fill="none" stroke="#be9471" stroke-width="2.8" stroke-linecap="round" stroke-linejoin="round" /><path d="M88 122 Q100 132 112 122" fill="none" stroke="#2A1F45" stroke-width="3.5" stroke-linecap="round" stroke-linejoin="round" /><path d="M56 96 C46 34 154 34 144 96 C140 74 124 62 100 62 C76 62 60 74 56 96 Z" fill="#C9CED6" /><circle cx="82" cy="97" r="14" fill="#fff" fill-opacity=".3" stroke="#2A1F45" stroke-width="3.5"/><g transform="translate(200 0) scale(-1 1)"><circle cx="82" cy="97" r="14" fill="#fff" fill-opacity=".3" stroke="#2A1F45" stroke-width="3.5"/></g><path d="M96 96 H104" fill="none" stroke="#2A1F45" stroke-width="3.5" stroke-linecap="round" stroke-linejoin="round" /></svg>