<svg xmlns="http://www.w3.org/2000/svg" viewBox="0 0 200 200"><rect width="200" height="200" fill="#FFCFB3"/><circle cx="100" cy="112" r="90" fill="#fff" opacity=".25"/><path d="M100 48 V32" fill="none" stroke="#9AA5B4" stroke-width="5" stroke-linecap="round" stroke-linejoin="round" /><path d="M76 18 Q100 46 124 18 Z" fill="#C9CED6" /><circle cx="100" cy="18" r="5" fill="#FFE156" /><rect x="88" y="116" width="24" height="34" rx="0" fill="#9AA5B4" /><path d="M88 130 H112 M88 138 H112" fill="none" stroke="#6C7686" stroke-width="2.5" stroke-linecap="round" stroke-linejoin="round" /><path d="M28 200 V164 Q28 144 48 144 H152 Q172 144 172 164 V200 Z" fill="#4d5eb6" /><rect x="72" y="158" width="56" height="32" rx="6" fill="#2A1F45" /><path d="M78 176 L88 176 L94 164 L102 186 L110 170 L122 170" fill="none" stroke="#FFE156" stroke-width="3" stroke-linecap="round" stroke-linejoin="round" /><ellipse cx="100" cy="86" rx="46" ry="42" fill="#5B6FD6" /><circle cx="100" cy="80" r="18" fill="#fff" /><circle cx="100" cy="80" r="10" fill="#FFE156" /><circle cx="100" cy="80" r="4" fill="#2A1F45" /><circle cx="86" cy="108" r="4" fill="#2A1F45" /><circle cx="100" cy="108" r="4" fill="#2A1F45" /><circle cx="114" cy="108" r="4" fill="#2A1F45" /></svg>