<svg xmlns="http://www.w3.org/2000/svg" viewBox="0 0 200 200"><rect width="200" height="200" fill="#DCEBC3"/><circle cx="100" cy="112" r="90" fill="#fff" opacity=".25"/><rect x="92" y="38" width="16" height="10" rx="2" fill="#9AA5B4" /><circle cx="100" cy="28" r="14" fill="#FFE156" /><path d="M95 30 L100 24 L105 30" fill="none" stroke="#F28C28" stroke-width="2.5" stroke-linecap="round" stroke-linejoin="round" /><rect x="88" y="116" width="24" height="34" rx="0" fill="#9AA5B4" /><path d="M88 130 H112 M88 138 H112" fill="none" stroke="#6C7686" stroke-width="2.5" stroke-linecap="round" stroke-linejoin="round" /><path d="M28 200 V164 Q28 144 48 144 H152 Q172 144 172 164 V200 Z" fill="#d9ab33" /><circle cx="100" cy="176" r="17" fill="#fff" /><path d="M100 176 L110 166" fill="none" stroke="#E63946" stroke-width="3.5" stroke-linecap="round" stroke-linejoin="round" /><circle cx="100" cy="176" r="3" fill="#2A1F45" /><rect x="44" y="74" width="14" height="20" rx="3" fill="#9AA5B4" /><rect x="38" y="80" width="8" height="8" rx="2" fill="#4A4F5C" /><g transform="translate(200 0) scale(-1 1)"><rect x="44" y="74" width="14" height="20" rx="3" fill="#9AA5B4" /><rect x="38" y="80" width="8" height="8" rx="2" fill="#4A4F5C" /></g><ellipse cx="100" cy="86" rx="46" ry="42" fill="#FFC93C" /><rect x="64" y="68" width="72" height="24" rx="5" fill="#2A1F45" /><path d="M70 80 L78 74 L86 86 L94 74 L102 86 L110 74 L118 86 L130 80" fill="none" stroke="#FFE156" stroke-width="3" stroke-linecap="round" stroke-linejoin="round" /><path d="M82 103 Q100 116 118 103" fill="none" stroke="#2A1F45" stroke-width="4" stroke-linecap="round" stroke-linejoin="round" /></svg>