<svg xmlns="http://www.w3.org/2000/svg" viewBox="0 0 200 200"><rect width="200" height="200" fill="#FFD6A5"/><circle cx="100" cy="112" r="90" fill="#fff" opacity=".25"/><circle cx="50" cy="72" r="19" fill="#8BC34A" /><circle cx="50" cy="72" r="9" fill="#F06BA8" /><g transform="translate(200 0) scale(-1 1)"><circle cx="50" cy="72" r="19" fill="#8BC34A" /><circle cx="50" cy="72" r="9" fill="#F06BA8" /></g><path d="M100 38 C150 70 164 110 164 132 C164 172 136 186 100 186 C64 186 36 172 36 132 C36 110 50 70 100 38 Z" fill="#8BC34A" /><circle cx="100" cy="104" r="26" fill="#fff" /><circle cx="100" cy="106" r="11.700000000000001" fill="#2A1F45" /><circle cx="105.2" cy="100.1" r="4.16" fill="#fff" /><path d="M76 138 Q100 176 124 138 Z" fill="#4A1830" /><ellipse cx="100" cy="156" rx="10" ry="12" fill="#F06BA8" /></svg>